<svg preserveAspectRatio="none" width="100%" height="100%" overflow="visible" style="display: block;" viewBox="0 0 32 32" fill="none" xmlns="http://www.w3.org/2000/svg">
<g id="right arrow">
<path id="Vector" d="M11.4312 28.1334L22.6646 16.9334C22.7979 16.8 22.8921 16.6556 22.9473 16.5C23.0033 16.3445 23.0312 16.1778 23.0312 16C23.0312 15.8223 23.0033 15.6556 22.9473 15.5C22.8921 15.3445 22.7979 15.2 22.6646 15.0667L11.4312 3.83337C11.1201 3.52225 10.7312 3.3667 10.2646 3.3667C9.79792 3.3667 9.39792 3.53337 9.06458 3.8667C8.73125 4.20003 8.56458 4.58892 8.56458 5.03337C8.56458 5.47781 8.73125 5.8667 9.06458 6.20003L18.8646 16L9.06458 25.8C8.75347 26.1111 8.59792 26.4943 8.59792 26.9494C8.59792 27.4054 8.76458 27.8 9.09792 28.1334C9.43125 28.4667 9.82014 28.6334 10.2646 28.6334C10.709 28.6334 11.0979 28.4667 11.4312 28.1334Z" fill="var(--fill-0, #121212)"/>
</g>
</svg>
