<svg preserveAspectRatio="none" width="100%" height="100%" overflow="visible" style="display: block;" viewBox="0 0 19.5 19.5" fill="none" xmlns="http://www.w3.org/2000/svg">
<path id="Icon" fill-rule="evenodd" clip-rule="evenodd" d="M9.75 0C4.36522 0 0 4.36522 0 9.75C0 15.1348 4.36522 19.5 9.75 19.5C15.1348 19.5 19.5 15.1348 19.5 9.75C19.5 4.36522 15.1348 0 9.75 0ZM1.5 9.75C1.5 5.19365 5.19365 1.5 9.75 1.5C14.3063 1.5 18 5.19365 18 9.75C18 14.3063 14.3063 18 9.75 18C8.89272 18 8.06599 17.8692 7.28865 17.6266C7.71125 16.963 8.04734 16.248 8.28871 15.4991L8.80527 13.5219C9.01869 13.8265 9.30482 14.0729 9.63766 14.2388C9.97051 14.4047 10.3395 14.4848 10.7112 14.4719C13.2465 14.4719 15.0278 12.1681 15.0278 9.30626C15.0278 6.55719 12.7834 4.50282 9.90371 4.50282C6.31746 4.50282 4.41152 6.91344 4.41152 9.53188C4.41152 10.755 5.05871 12.2691 6.09777 12.7559C6.25214 12.8272 6.35308 12.7559 6.37683 12.6431C6.40057 12.5304 6.54292 11.961 6.60828 11.6995C6.61853 11.6581 6.6186 11.6143 6.60825 11.5729C6.5979 11.5315 6.57756 11.4933 6.54902 11.4616C6.15647 10.9085 5.94867 10.2457 5.95527 9.56751C5.95321 9.08072 6.04996 8.59858 6.23964 8.15026C6.42932 7.70195 6.708 7.29679 7.05881 6.9593C7.40962 6.62181 7.82527 6.35902 8.28058 6.18682C8.7359 6.01463 9.22143 5.93662 9.70777 5.95751C10.1633 5.93086 10.6194 5.99946 11.0469 6.15892C11.4745 6.31838 11.8641 6.5652 12.1909 6.88365C12.5177 7.20209 12.7746 7.58516 12.9451 8.00841C13.1156 8.43166 13.196 8.88581 13.1812 9.34188C13.1812 11.5863 12.0412 13.1478 10.5687 13.1478C10.3785 13.1624 10.1875 13.131 10.012 13.0562C9.83654 12.9813 9.68165 12.8653 9.56049 12.7179C9.43933 12.5706 9.35546 12.3962 9.31599 12.2095C9.27651 12.0229 9.28259 11.8294 9.33371 11.6456C9.4181 11.2954 9.52947 10.9347 9.638 10.5832C9.83491 9.94548 10.0225 9.33809 10.0225 8.87876C10.043 8.72956 10.0311 8.57769 9.98746 8.43353C9.94385 8.28938 9.8696 8.15636 9.76979 8.04358C9.66998 7.9308 9.54697 7.84093 9.40919 7.78011C9.27141 7.7193 9.12211 7.68899 8.97152 7.69126C8.14027 7.69126 7.46933 8.55813 7.46933 9.71001C7.46315 10.1171 7.53992 10.5211 7.69496 10.8975L6.71527 15.0538C6.59525 15.8391 6.59499 16.6382 6.71449 17.4236C6.06392 17.1661 5.45391 16.8282 4.89671 16.4222C3.91962 15.7084 3.10317 14.7848 2.51292 13.7093C2.28071 13.2862 2.08712 12.8462 1.93299 12.3946C1.65223 11.5644 1.5 10.675 1.5 9.75Z" fill="var(--fill-0, #121212)"/>
</svg>
